:SAMPLES-PER-SECOND 30
:FULLY-SPECIFIED
:DEGREES
352
root  -2.77561 40.969 1.52328 173.861 -84.8116 -174.121
RightUpLeg  4.58091 -0.492933 -0.737
RightLeg  -3.47123 -12.2168 0.425726
RightFoot  0.0620303 -0.250415 2.50787
RightToes  -3.10678e-008 1.75238e-005 3.56266e-009
Spine  -0.734933 3.8164 2.0007
Spine1  0.601183 3.65603 0.430642
HEad  -1.47156 -0.885738 1.35565
LeftShoulder1  2.33133 -3.79308 -25.7997
LeftArm  -37.5447 28.3775 -57.0418
LeftForeArm  74.7219 -16.3049 -2.38595
LeftHand  -0.59984 -3.63405 7.97599
RightShoulder  1.93226 3.89604 19.7318
RightArm  -49.3055 27.614 21.9309
RightForeArm  3.70257 8.27462 -1.13596
RightHand  -1.24115 7.2097 -11.6479
LeftUpLeg  4.71804 0.970097 1.27836
LeftLeg  -2.42444 19.3243 -0.988506
LeftFoot  -1.36407 0.210124 -2.15805
LeftToes  4.76857e-008 1.46588e-008 1.31384e-009
353
root  -2.8054 40.9803 1.52397 175.045 -86.6989 -174.803
RightUpLeg  4.39875 -0.791293 -1.02494
RightLeg  -3.71748 -13.7731 0.693701
RightFoot  0.0387715 -0.252937 2.52553
RightToes  -3.10678e-008 1.75238e-005 3.56266e-009
Spine  -0.314827 4.00176 4.55192
Spine1  -0.748702 4.53467 -3.96882
HEad  -0.806534 -3.51776 3.58975
LeftShoulder1  2.24244 -3.66043 -25.1295
LeftArm  -36.5029 26.8822 -53.9918
LeftForeArm  76.0529 -14.7299 -2.70591
LeftHand  -0.655726 -3.9016 8.43803
RightShoulder  1.53549 2.97996 17.1006
RightArm  -49.6825 26.7886 17.0446
RightForeArm  6.4429 4.92909 -1.29669
RightHand  -0.72438 6.29846 -7.55488
LeftUpLeg  4.05943 0.709849 1.08299
LeftLeg  -2.56419 17.7508 -1.04613
LeftFoot  -1.1599 0.198111 -1.97521
LeftToes  4.76857e-008 1.46588e-008 1.31384e-009
354
root  -2.85612 40.9797 1.47434 174.197 -89.1717 -173.693
RightUpLeg  4.50154 -0.925314 -1.10424
RightLeg  -3.74055 -16.0408 0.824584
RightFoot  -0.267494 -0.260803 2.67047
RightToes  -3.10678e-008 1.75238e-005 3.56266e-009
Spine  -0.972698 3.42182 5.30639
Spine1  -0.0954979 4.26964 -5.90854
HEad  -2.94826 -4.44687 3.88007
LeftShoulder1  2.24988 -3.59846 -25.522
LeftArm  -36.055 25.9618 -51.1615
LeftForeArm  73.4031 -14.6762 -2.88431
LeftHand  -0.75329 -4.17269 9.42757
RightShoulder  1.20058 1.96751 15.2033
RightArm  -48.2423 25.4763 14.3367
RightForeArm  9.5608 5.70255 0.374473
RightHand  -0.656888 6.47651 -6.74849
LeftUpLeg  3.61272 0.566019 1.04391
LeftLeg  -2.61304 15.458 -1.03622
LeftFoot  -0.998939 0.199066 -1.99344
LeftToes  4.76857e-008 1.46588e-008 1.31384e-009
355
root  -2.88604 40.9725 1.41447 -6.87453 -88.8271 7.22847
RightUpLeg  4.82829 -1.19334 -1.21965
RightLeg  -3.49178 -17.6933 0.932908
RightFoot  -0.643908 -0.250975 2.63147
RightToes  -3.10678e-008 1.75238e-005 3.56266e-009
Spine  -1.6957 2.5249 4.85351
Spine1  1.15311 3.45265 -6.0401
HEad  -5.48674 -4.81368 2.8665
LeftShoulder1  2.27189 -3.6155 -25.7642
LeftArm  -35.3781 26.3638 -49.9036
LeftForeArm  67.5517 -16.0291 -3.11251
LeftHand  -0.694929 -2.92523 9.91209
RightShoulder  0.984472 1.20637 14.0868
RightArm  -47.7643 26.0944 13.087
RightForeArm  6.90195 7.38623 1.54051
RightHand  -0.722319 6.49088 -7.37012
LeftUpLeg  3.61895 0.411336 0.937678
LeftLeg  -2.62058 13.6564 -0.889456
LeftFoot  -0.88932 0.208119 -2.13705
LeftToes  4.76857e-008 1.46588e-008 1.31384e-009
356
root  -2.89919 40.962 1.35881 -4.65233 -87.7764 4.65422
RightUpLeg  5.22539 -1.2777 -1.15342
RightLeg  -3.21262 -18.6118 0.920243
RightFoot  -0.953441 -0.233294 2.49514
RightToes  -3.10678e-008 1.75238e-005 3.56266e-009
Spine  -2.04485 1.91885 3.88077
Spine1  2.15901 2.7377 -5.07981
HEad  -6.87006 -5.10757 1.90973
LeftShoulder1  2.32299 -3.73289 -25.9624
LeftArm  -35.9517 26.8595 -49.6715
LeftForeArm  63.6724 -16.4283 -3.11103
LeftHand  -0.758494 -2.81592 10.9516
RightShoulder  0.986588 1.30069 13.6554
RightArm  -48.1325 26.8452 11.3559
RightForeArm  7.30325 10.2605 2.37784
RightHand  -0.552617 6.42432 -5.76678
LeftUpLeg  3.82253 0.482107 1.01735
LeftLeg  -2.43226 12.5391 -0.77596
LeftFoot  -0.942299 0.224126 -2.38833
LeftToes  4.76857e-008 1.46588e-008 1.31384e-009
357
root  -2.91223 40.9577 1.31832 -5.14845 -87.7185 4.87366
RightUpLeg  5.55392 -1.29584 -1.10215
RightLeg  -3.19307 -18.6653 0.893777
RightFoot  -1.03925 -0.233361 2.51533
RightToes  -3.10678e-008 1.75238e-005 3.56266e-009
Spine  -2.26633 1.85068 3.16436
Spine1  2.89912 2.56046 -4.19451
HEad  -7.39507 -4.21521 1.304
LeftShoulder1  2.33949 -3.80685 -25.8601
LeftArm  -35.6899 27.1388 -49.5376
LeftForeArm  61.9471 -16.2346 -3.3333
LeftHand  -0.69053 -2.23722 10.7102
RightShoulder  0.953047 1.19096 13.4022
RightArm  -45.5438 27.2436 9.12811
RightForeArm  6.84081 15.8197 4.11114
RightHand  -0.498665 7.08463 -4.97871
LeftUpLeg  4.07098 0.593231 1.10015
LeftLeg  -2.28171 12.3566 -0.766287
LeftFoot  -1.05819 0.227783 -2.44713
LeftToes  4.76857e-008 1.46588e-008 1.31384e-009
358
root  -2.94162 40.9559 1.30233 -9.25563 -88.3591 8.98917
RightUpLeg  5.45294 -1.33613 -1.16268
RightLeg  -3.04279 -17.9873 0.829836
RightFoot  -1.13942 -0.23119 2.46909
RightToes  -3.10678e-008 1.75238e-005 3.56266e-009
Spine  -2.53973 2.08875 2.87131
Spine1  3.09005 2.72507 -3.69057
HEad  -6.8597 -4.5007 0.858109
LeftShoulder1  2.30689 -3.72956 -25.7428
LeftArm  -34.8017 27.6643 -49.225
LeftForeArm  62.9392 -16.0758 -3.55834
LeftHand  -0.68035 -2.72126 9.95367
RightShoulder  0.888294 0.913346 13.1793
RightArm  -40.7509 27.9495 6.75065
RightForeArm  2.79701 24.0337 5.07907
RightHand  -0.527262 7.73909 -5.01833
LeftUpLeg  4.19472 0.660146 1.1051
LeftLeg  -2.30106 12.918 -0.871015
LeftFoot  -1.14466 0.224126 -2.39179
LeftToes  4.76857e-008 1.46588e-008 1.31384e-009
359
root  -2.97266 40.959 1.30773 -32.1174 -89.351 32.148
RightUpLeg  5.02567 -1.35689 -1.32993
RightLeg  -2.94577 -16.9621 0.758847
RightFoot  -1.13232 -0.241978 2.64756
RightToes  -3.10678e-008 1.75238e-005 3.56266e-009
Spine  -2.58409 2.30902 3.02255
Spine1  2.56366 2.90361 -3.59202
HEad  -5.84419 -3.79364 0.636409
LeftShoulder1  2.13814 -3.32699 -25.126
LeftArm  -34.8821 28.593 -49.7948
LeftForeArm  65.4195 -15.8575 -3.56457
LeftHand  -0.705872 -3.17056 9.80835
RightShoulder  0.724861 0.272237 12.1994
RightArm  -41.2288 29.6082 4.83976
RightForeArm  3.22235 32.7485 7.05246
RightHand  -0.397116 7.94132 -3.82148
LeftUpLeg  4.20035 0.654673 1.0106
LeftLeg  -2.64356 13.938 -1.10464
LeftFoot  -1.09963 0.220108 -2.33049
LeftToes  4.76857e-008 1.46588e-008 1.31384e-009
360
root  -3.01597 40.9653 1.33137 -92.3032 -89.6379 92.6158
RightUpLeg  4.91736 -1.29033 -1.32724
RightLeg  -3.38954 -16.3158 0.862387
RightFoot  -0.915694 -0.238675 2.60533
RightToes  -3.10678e-008 1.75238e-005 3.56266e-009
Spine  -2.4254 2.3506 4.24671
Spine1  1.86493 3.08529 -4.789
HEad  -5.14047 -3.74878 1.16026
LeftShoulder1  2.0464 -3.17605 -24.4315
LeftArm  -36.1554 29.7282 -50.441
LeftForeArm  66.7555 -15.6817 -3.31827
LeftHand  -0.696153 -3.36139 9.47734
RightShoulder  0.56477 -0.405293 11.0814
RightArm  -42.3681 30.9333 2.55515
RightForeArm  3.19906 42.8975 10.1712
RightHand  -0.32258 8.09297 -3.14674
LeftUpLeg  4.20065 0.62919 1.00242
LeftLeg  -2.96313 14.6679 -1.21763
LeftFoot  -1.08194 0.216742 -2.27903
LeftToes  4.76857e-008 1.46588e-008 1.31384e-009
361
root  -3.06057 40.9678 1.35429 -167.173 -89.0831 167.73
RightUpLeg  4.64501 -1.2178 -1.38187
RightLeg  -3.41517 -15.6599 0.796392
RightFoot  -0.881362 -0.241967 2.66423
RightToes  -3.10678e-008 1.75238e-005 3.56266e-009
Spine  -2.19939 2.5 5.44212
Spine1  1.45513 3.37809 -5.97641
HEad  -4.85872 -3.48594 1.63783
LeftShoulder1  1.99472 -3.03179 -24.3026
LeftArm  -37.5815 30.4123 -50.6133
LeftForeArm  66.648 -15.2093 -3.12815
LeftHand  -0.70835 -3.17377 9.83645
RightShoulder  0.332413 -1.53185 9.68062
RightArm  -45.1818 32.1684 0.284413
RightForeArm  4.54778 55.3147 16.1128
RightHand  -0.298821 8.24006 -2.9146
LeftUpLeg  4.29166 0.605636 0.933684
LeftLeg  -3.39265 15.4591 -1.38722
LeftFoot  -1.01006 0.221574 -2.35485
LeftToes  4.76857e-008 1.46588e-008 1.31384e-009
362
root  -3.08077 40.9729 1.3562 -158.898 -89.0541 159.845
RightUpLeg  4.28228 -1.1824 -1.38768
RightLeg  -3.4933 -15.7006 0.851215
RightFoot  -0.821403 -0.237184 2.59688
RightToes  -3.10678e-008 1.75238e-005 3.56266e-009
Spine  -1.80464 2.27225 6.37866
Spine1  0.982011 3.28152 -7.02227
HEad  -5.29021 -3.50958 2.48738
LeftShoulder1  1.87009 -2.69123 -23.9568
LeftArm  -39.0138 31.2005 -51.2365
LeftForeArm  66.5119 -15.4836 -2.7375
LeftHand  -0.708277 -3.12824 9.88622
RightShoulder  0.166136 -2.4557 8.60049
RightArm  -50.9876 32.9119 -1.67605
RightForeArm  18.8839 70.1679 33.5382
RightHand  -0.10928 8.39691 -1.29903
LeftUpLeg  4.00431 0.524633 0.920677
LeftLeg  -3.62142 15.5361 -1.44773
LeftFoot  -0.913812 0.223856 -2.39081
LeftToes  4.76857e-008 1.46588e-008 1.31384e-009
363
root  -3.10408 40.9735 1.33289 -168.344 -89.5819 169.567
RightUpLeg  4.11753 -1.16953 -1.35109
RightLeg  -3.59429 -16.2164 0.935455
RightFoot  -0.823344 -0.231676 2.51751
RightToes  -3.10678e-008 1.75238e-005 3.56266e-009
Spine  -1.19776 2.24224 7.40052
Spine1  0.576176 3.45363 -8.3284
HEad  -5.76749 -4.60083 3.5234
LeftShoulder1  1.91491 -2.86565 -23.8222
LeftArm  -38.72 31.6721 -51.1562
LeftForeArm  65.3713 -16.0038 -2.80151
LeftHand  -0.692858 -2.80232 10.0394
RightShoulder  -0.0438382 -3.77831 7.53095
RightArm  -58.3624 33.5485 -3.27662
RightForeArm  73.7139 78.9067 95.4218
RightHand  0.238686 9.35547 1.45801
LeftUpLeg  3.67665 0.452517 0.930158
LeftLeg  -3.61164 15.1492 -1.40059
LeftFoot  -0.852496 0.218711 -2.31112
LeftToes  4.76857e-008 1.46588e-008 1.31384e-009
364
root  -3.15746 40.9713 1.26894 -44.665 -89.2331 46.0071
RightUpLeg  4.26227 -1.23317 -1.33106
RightLeg  -3.73858 -17.1756 1.08017
RightFoot  -0.947307 -0.233677 2.5541
RightToes  -3.10678e-008 1.75238e-005 3.56266e-009
Spine  -0.962301 1.90292 7.10694
Spine1  0.315886 3.15674 -8.50581
HEad  -5.3795 -5.47424 5.58437
LeftShoulder1  1.80179 -2.63638 -23.0688
LeftArm  -39.1125 32.2211 -52.2527
LeftForeArm  64.8794 -16.574 -2.6803
LeftHand  -0.704326 -2.7114 10.309
RightShoulder  -0.207029 -4.95949 6.346
RightArm  -64.6289 35.4201 -3.33061
RightForeArm  113.321 72.0958 142.289
RightHand  0.348665 10.8366 2.0779
LeftUpLeg  3.5175 0.39036 0.954966
LeftLeg  -3.60416 14.2034 -1.31637
LeftFoot  -0.784245 0.226249 -2.42859
LeftToes  4.76857e-008 1.46588e-008 1.31384e-009
365
root  -3.22547 40.9689 1.19399 -14.8195 -88.5274 16.191
RightUpLeg  4.43041 -1.28378 -1.24916
RightLeg  -3.7375 -17.9191 1.18708
RightFoot  -1.13781 -0.228812 2.48387
RightToes  -3.10678e-008 1.75238e-005 3.56266e-009
Spine  -0.79185 1.6761 6.06398
Spine1  -0.308163 2.87161 -8.12381
HEad  -3.34759 -5.93318 7.9792
LeftShoulder1  1.79484 -2.69371 -22.6581
LeftArm  -39.663 33.0117 -52.9778
LeftForeArm  64.2769 -16.878 -2.60984
LeftHand  -0.718229 -2.86999 10.3166
RightShoulder  -0.277468 -5.54248 5.69795
RightArm  -67.4713 36.1127 -1.39063
RightForeArm  122.936 67.227 151.465
RightHand  0.239269 11.2827 1.23101
LeftUpLeg  3.52282 0.418788 1.06301
LeftLeg  -3.64627 13.3707 -1.2666
LeftFoot  -0.744107 0.230473 -2.49448
LeftToes  4.76857e-008 1.46588e-008 1.31384e-009
366
root  -3.27739 40.9663 1.13164 -12.6334 -88.0468 14.001
RightUpLeg  4.55611 -1.36314 -1.19758
RightLeg  -3.72036 -18.2934 1.31564
RightFoot  -1.24609 -0.222975 2.39846
RightToes  -3.10678e-008 1.75238e-005 3.56266e-009
Spine  -1.32508 1.7538 4.74866
Spine1  0.350618 2.84235 -7.04494
HEad  -1.97458 -6.82013 9.42922
LeftShoulder1  1.89024 -2.85601 -23.4673
LeftArm  -39.1866 32.7928 -52.8744
LeftForeArm  63.1678 -16.9964 -2.7416
LeftHand  -0.714217 -2.83594 10.3015
RightShoulder  -0.243478 -5.1725 6.7263
RightArm  -67.9919 34.7575 -2.09833
RightForeArm  122.487 66.511 152.168
RightHand  0.213857 11.1688 1.06888
LeftUpLeg  3.52705 0.433971 1.15321
LeftLeg  -3.60053 12.8798 -1.18637
LeftFoot  -0.744289 0.234626 -2.55926
LeftToes  4.76857e-008 1.46588e-008 1.31384e-009
